<svg width="282" height="65" viewBox="0 0 282 65" fill="none" xmlns="http://www.w3.org/2000/svg">
<g clip-path="url(#clip0)">
<path d="M38.8161 36.512C38.8161 33.728 39.3121 31.296 40.3041 29.216C41.3281 27.136 42.7041 25.536 44.4321 24.416C46.1921 23.296 48.1441 22.736 50.2881 22.736C52.1441 22.736 53.7441 23.104 55.0881 23.84C56.4321 24.576 57.4721 25.568 58.2081 26.816V23.072H67.6161V50H58.2081V46.256C57.4721 47.504 56.4161 48.496 55.0401 49.232C53.6961 49.968 52.1121 50.336 50.2881 50.336C48.1441 50.336 46.1921 49.776 44.4321 48.656C42.7041 47.536 41.3281 45.936 40.3041 43.856C39.3121 41.744 38.8161 39.296 38.8161 36.512ZM58.2081 36.512C58.2081 34.784 57.7281 33.424 56.7681 32.432C55.8401 31.44 54.6881 30.944 53.3121 30.944C51.9041 30.944 50.7361 31.44 49.8081 32.432C48.8801 33.392 48.4161 34.752 48.4161 36.512C48.4161 38.24 48.8801 39.616 49.8081 40.64C50.7361 41.632 51.9041 42.128 53.3121 42.128C54.6881 42.128 55.8401 41.632 56.7681 40.64C57.7281 39.648 58.2081 38.272 58.2081 36.512ZM84.4011 50.336C81.9691 50.336 79.8091 49.936 77.9211 49.136C76.0331 48.304 74.5291 47.184 73.4091 45.776C72.3211 44.336 71.7131 42.72 71.5851 40.928H80.7051C80.8331 41.824 81.2171 42.512 81.8571 42.992C82.5291 43.472 83.3771 43.712 84.4011 43.712C85.1691 43.712 85.7771 43.552 86.2251 43.232C86.6731 42.88 86.8971 42.448 86.8971 41.936C86.8971 41.264 86.5291 40.768 85.7931 40.448C85.0571 40.128 83.8411 39.776 82.1451 39.392C80.1931 38.976 78.5771 38.544 77.2971 38.096C76.0491 37.648 74.9611 36.896 74.0331 35.84C73.1051 34.752 72.6411 33.28 72.6411 31.424C72.6411 29.792 73.0571 28.32 73.8891 27.008C74.7531 25.696 76.0171 24.656 77.6811 23.888C79.3771 23.12 81.4091 22.736 83.7771 22.736C87.2971 22.736 90.0651 23.6 92.0811 25.328C94.0971 27.056 95.2651 29.328 95.5851 32.144H87.0891C86.9291 31.28 86.5451 30.608 85.9371 30.128C85.3611 29.616 84.5771 29.36 83.5851 29.36C82.8171 29.36 82.2251 29.52 81.8091 29.84C81.4251 30.128 81.2331 30.544 81.2331 31.088C81.2331 31.728 81.6011 32.224 82.3371 32.576C83.0731 32.896 84.2571 33.232 85.8891 33.584C87.8411 34 89.4571 34.464 90.7371 34.976C92.0491 35.488 93.1851 36.304 94.1451 37.424C95.1051 38.544 95.5851 40.08 95.5851 42.032C95.5851 43.6 95.1371 45.024 94.2411 46.304C93.3451 47.552 92.0491 48.544 90.3531 49.28C88.6891 49.984 86.7051 50.336 84.4011 50.336ZM117.97 22.832C121.042 22.832 123.474 23.872 125.266 25.952C127.09 28 128.002 30.784 128.002 34.304V50H118.594V35.552C118.594 34.016 118.194 32.816 117.394 31.952C116.594 31.056 115.522 30.608 114.178 30.608C112.77 30.608 111.666 31.056 110.866 31.952C110.066 32.816 109.666 34.016 109.666 35.552V50H100.258V14.48H109.666V26.912C110.498 25.696 111.618 24.72 113.026 23.984C114.466 23.216 116.114 22.832 117.97 22.832ZM142.573 26.816C143.309 25.536 144.349 24.544 145.693 23.84C147.037 23.104 148.621 22.736 150.445 22.736C152.589 22.736 154.525 23.296 156.253 24.416C158.013 25.536 159.389 27.136 160.381 29.216C161.405 31.296 161.917 33.728 161.917 36.512C161.917 39.296 161.405 41.744 160.381 43.856C159.389 45.936 158.013 47.536 156.253 48.656C154.525 49.776 152.589 50.336 150.445 50.336C148.621 50.336 147.037 49.984 145.693 49.28C144.349 48.544 143.309 47.536 142.573 46.256V50H133.165V14.48H142.573V26.816ZM152.365 36.512C152.365 34.752 151.885 33.392 150.925 32.432C149.997 31.44 148.845 30.944 147.469 30.944C146.093 30.944 144.925 31.44 143.965 32.432C143.037 33.424 142.573 34.784 142.573 36.512C142.573 38.272 143.037 39.648 143.965 40.64C144.925 41.632 146.093 42.128 147.469 42.128C148.845 42.128 149.997 41.632 150.925 40.64C151.885 39.616 152.365 38.24 152.365 36.512ZM178.318 50.336C175.63 50.336 173.214 49.776 171.07 48.656C168.958 47.536 167.294 45.936 166.078 43.856C164.862 41.776 164.254 39.328 164.254 36.512C164.254 33.728 164.862 31.296 166.078 29.216C167.326 27.136 169.006 25.536 171.118 24.416C173.262 23.296 175.678 22.736 178.366 22.736C181.054 22.736 183.454 23.296 185.566 24.416C187.71 25.536 189.39 27.136 190.606 29.216C191.854 31.296 192.478 33.728 192.478 36.512C192.478 39.296 191.854 41.744 190.606 43.856C189.39 45.936 187.71 47.536 185.566 48.656C183.422 49.776 181.006 50.336 178.318 50.336ZM178.318 42.224C179.598 42.224 180.686 41.744 181.582 40.784C182.478 39.792 182.926 38.368 182.926 36.512C182.926 34.688 182.478 33.296 181.582 32.336C180.718 31.344 179.646 30.848 178.366 30.848C177.086 30.848 176.014 31.344 175.15 32.336C174.286 33.296 173.854 34.688 173.854 36.512C173.854 38.368 174.27 39.792 175.102 40.784C175.934 41.744 177.006 42.224 178.318 42.224ZM194.769 36.512C194.769 33.728 195.265 31.296 196.257 29.216C197.281 27.136 198.657 25.536 200.385 24.416C202.145 23.296 204.097 22.736 206.241 22.736C208.097 22.736 209.697 23.104 211.041 23.84C212.385 24.576 213.425 25.568 214.161 26.816V23.072H223.569V50H214.161V46.256C213.425 47.504 212.369 48.496 210.993 49.232C209.649 49.968 208.065 50.336 206.241 50.336C204.097 50.336 202.145 49.776 200.385 48.656C198.657 47.536 197.281 45.936 196.257 43.856C195.265 41.744 194.769 39.296 194.769 36.512ZM214.161 36.512C214.161 34.784 213.681 33.424 212.721 32.432C211.793 31.44 210.641 30.944 209.265 30.944C207.857 30.944 206.689 31.44 205.761 32.432C204.833 33.392 204.369 34.752 204.369 36.512C204.369 38.24 204.833 39.616 205.761 40.64C206.689 41.632 207.857 42.128 209.265 42.128C210.641 42.128 211.793 41.632 212.721 40.64C213.681 39.648 214.161 38.272 214.161 36.512ZM238.338 27.968C239.394 26.4 240.674 25.152 242.178 24.224C243.682 23.296 245.298 22.832 247.026 22.832V32.864H244.386C242.338 32.864 240.818 33.264 239.826 34.064C238.834 34.864 238.338 36.256 238.338 38.24V50H228.93V23.072H238.338V27.968ZM248.863 36.512C248.863 33.728 249.359 31.296 250.351 29.216C251.375 27.136 252.767 25.536 254.527 24.416C256.287 23.296 258.239 22.736 260.383 22.736C262.111 22.736 263.647 23.104 264.991 23.84C266.367 24.544 267.439 25.52 268.207 26.768V14.48H277.663V50H268.207V46.256C267.471 47.504 266.431 48.496 265.087 49.232C263.743 49.968 262.159 50.336 260.335 50.336C258.191 50.336 256.239 49.776 254.479 48.656C252.751 47.536 251.375 45.936 250.351 43.856C249.359 41.744 248.863 39.296 248.863 36.512ZM268.255 36.512C268.255 34.784 267.775 33.424 266.815 32.432C265.887 31.44 264.735 30.944 263.359 30.944C261.951 30.944 260.783 31.44 259.855 32.432C258.927 33.392 258.463 34.752 258.463 36.512C258.463 38.24 258.927 39.616 259.855 40.64C260.783 41.632 261.951 42.128 263.359 42.128C264.735 42.128 265.887 41.632 266.815 40.64C267.775 39.648 268.255 38.272 268.255 36.512Z" fill="#FFFFFF"/>
<path fill-rule="evenodd" clip-rule="evenodd" d="M26.7436 18.32C24.0876 16.88 20.9836 16.16 17.4316 16.16H4.03957V24.3093H13.4645V24.32H16.7116C19.4636 24.32 21.6236 25.088 23.1916 26.624C24.7596 28.128 25.5436 30.272 25.5436 33.056C25.5436 35.808 24.7596 37.952 23.1916 39.488C21.6236 40.992 19.4636 41.744 16.7116 41.744H13.4476V41.738H4.03957V50H17.4316C20.9516 50 24.0396 49.28 26.6956 47.84C29.3836 46.368 31.4476 44.352 32.8876 41.792C34.3596 39.232 35.0956 36.32 35.0956 33.056C35.0956 29.76 34.3756 26.832 32.9356 24.272C31.4956 21.712 29.4316 19.728 26.7436 18.32Z" fill="#FFFFFF"/>
<circle cx="9.46457" cy="33.08" r="5.425" fill="#F24D4D"/>
</g>
<defs>
<clipPath id="clip0">
<rect width="282" height="65" fill="white"/>
</clipPath>
</defs>
</svg>
